# xmcd
#
# Track frame offsets:
#	150
#	19085
#	35981
#	60727
#	82260
#	95345
#	119129
#	135495
#	157626
#	175630
#	189304
#
# Disc length: 2638 seconds
#
# Revision: 1
# Processed by: cddbd v1.5.2PL0 Copyright (c) Steve Scherf et al.
# Submitted via: audiograbber 1.83.01
#
DISCID=8d0a4c0b
DTITLE=Chapman, Roger - Walking The Cat
DYEAR=1989
DGENRE=Blues-Rock
TTITLE0=Kick it back
TTITLE1=Son of red moon
TTITLE2=Stranger than strang
TTITLE3=Just a step away (let´s go)
TTITLE4=The fool
TTITLE5=Walking the cat
TTITLE6=J and D
TTITLE7=Come the dark night
TTITLE8=Hands off
TTITLE9=Jivin`
TTITLE10=Saturday night
EXTD=
EXTT0=
EXTT1=
EXTT2=
EXTT3=
EXTT4=
EXTT5=
EXTT6=
EXTT7=
EXTT8=
EXTT9=
EXTT10=
PLAYORDER=
